<svg width="236" height="236" viewBox="0 0 236 236" fill="none" xmlns="http://www.w3.org/2000/svg">
<defs>
<linearGradient id="ed_wood" x1="0" y1="90" x2="0" y2="146" gradientUnits="userSpaceOnUse"><stop offset="0" stop-color="#fbe3bf"/><stop offset="1" stop-color="#e3b683"/></linearGradient>
<linearGradient id="ed_lead" x1="0" y1="104" x2="0" y2="132" gradientUnits="userSpaceOnUse"><stop offset="0" stop-color="#5d6573"/><stop offset="1" stop-color="#2f3540"/></linearGradient>
<linearGradient id="ed_band" x1="0" y1="88" x2="0" y2="148" gradientUnits="userSpaceOnUse"><stop offset="0" stop-color="#8e99a6"/><stop offset="0.3" stop-color="#f4f7fa"/><stop offset="0.62" stop-color="#c9d1db"/><stop offset="1" stop-color="#6b7482"/></linearGradient>
<linearGradient id="ed_cap" x1="0" y1="90" x2="0" y2="146" gradientUnits="userSpaceOnUse"><stop offset="0" stop-color="#feb8c1"/><stop offset="0.5" stop-color="#fb7185"/><stop offset="1" stop-color="#e8566e"/></linearGradient>
<linearGradient id="ed_side" x1="0" y1="0" x2="0" y2="236" gradientUnits="userSpaceOnUse"><stop offset="0" stop-color="#b8601a"/><stop offset="1" stop-color="#8a4414"/></linearGradient>
<radialGradient id="ed_bloom" cx="70" cy="60" r="150" gradientUnits="userSpaceOnUse"><stop offset="0" stop-color="white" stop-opacity="0.3"/><stop offset="1" stop-color="white" stop-opacity="0"/></radialGradient>
<clipPath id="ed_clip"><path transform="rotate(-45 118 118)" d="M62 90L16 111.5Q4 118 16 124.5L62 146ZM58 90H190V146H58ZM200 90H212Q232 90 232 110V126Q232 146 212 146H200ZM186 88H206V148H186Z"/></clipPath>
<filter id="ed_shadow" x="-20" y="-20" width="276" height="276" filterUnits="userSpaceOnUse" color-interpolation-filters="sRGB"><feDropShadow dx="0" dy="5" stdDeviation="6" flood-color="#4c2405" flood-opacity="0.42"/></filter>
</defs>
<g filter="url(#ed_shadow)">
<g transform="translate(0 9)"><path transform="rotate(-45 118 118)" d="M62 90L16 111.5Q4 118 16 124.5L62 146ZM58 90H190V146H58ZM200 90H212Q232 90 232 110V126Q232 146 212 146H200ZM186 88H206V148H186Z" fill="url(#ed_side)"/></g>
<g transform="rotate(-45 118 118)">
<path d="M62 90L16 111.5Q4 118 16 124.5L62 146Z" fill="url(#ed_wood)"/>
<path d="M31 104.5L16 111.5Q4 118 16 124.5L31 131.5Z" fill="url(#ed_lead)"/>
<path d="M58 90H190V109H58Z" fill="#fcc24a"/>
<path d="M58 109H190V128H58Z" fill="#f8ab2c"/>
<path d="M58 128H190V146H58Z" fill="#e58a1c"/>
<path d="M200 90H212Q232 90 232 110V126Q232 146 212 146H200Z" fill="url(#ed_cap)"/>
<rect x="186" y="88" width="20" height="60" rx="5" fill="url(#ed_band)"/>
<rect x="192" y="88" width="3" height="60" fill="#6b7482" opacity="0.35"/>
</g>
</g>
<g clip-path="url(#ed_clip)"><rect width="236" height="236" fill="url(#ed_bloom)"/></g>
<g transform="rotate(-45 118 118)">
<rect x="66" y="95" width="116" height="6" rx="3" fill="white" opacity="0.45"/>
<rect x="206" y="95" width="18" height="6" rx="3" fill="white" opacity="0.5"/>
</g>
</svg>
